<svg width="261" height="61" viewBox="0 0 261 61" fill="none" xmlns="http://www.w3.org/2000/svg">
<path d="M186.895 7.62513L190.311 3.81262L193.727 7.62513V26.6877L190.311 30.5002L186.895 26.6877V7.62513Z" fill="white"/>
<path d="M74.6582 7.62513L78.0745 3.81262L81.4909 7.62513V26.6877L78.0745 30.5002L74.6582 26.6877V7.62513Z" fill="white"/>
<path d="M37.3281 7.62513L40.7445 3.81262L44.1608 7.62513V26.6877L40.7445 30.5002L37.3281 26.6877V7.62513Z" fill="white"/>
<path d="M0 7.62513L3.41633 3.81262L6.83267 7.62513V26.6877L3.41633 30.5002L0 26.6877V7.62513Z" fill="white"/>
<path d="M186.895 34.3125L190.311 30.5L193.727 34.3125V53.3751L190.311 57.1876L186.895 53.3751V34.3125Z" fill="white"/>
<path d="M74.6582 34.3125L78.0745 30.5L81.4909 34.3125V53.3751L78.0745 57.1876L74.6582 53.3751V34.3125Z" fill="white"/>
<path d="M37.3281 34.3125L40.7445 30.5L44.1608 34.3125V53.3751L40.7445 57.1876L37.3281 53.3751V34.3125Z" fill="white"/>
<path d="M0 34.3125L3.41633 30.5L6.83267 34.3125V53.3751L3.41633 57.1876L0 53.3751V34.3125Z" fill="white"/>
<path d="M174.936 7.62513L178.352 3.81262L181.768 7.62513V26.6877L178.352 30.5002L174.936 26.6877V7.62513Z" fill="white"/>
<path d="M212.516 7.62513L215.932 3.81262L219.348 7.62513V26.6877L215.932 30.5002L212.516 26.6877V7.62513Z" fill="white"/>
<path d="M137.607 7.62513L141.024 3.81262L144.44 7.62513V26.6877L141.024 30.5002L137.607 26.6877V7.62513Z" fill="white"/>
<path d="M100.279 7.62513L103.696 3.81262L107.112 7.62513V26.6877L103.696 30.5002L100.279 26.6877V7.62513Z" fill="white"/>
<path d="M62.9512 7.62513L66.3675 3.81262L69.7838 7.62513V26.6877L66.3675 30.5002L62.9512 26.6877V7.62513Z" fill="white"/>
<path d="M25.623 7.62513L29.0394 3.81262L32.4557 7.62513V26.6877L29.0394 30.5002L25.623 26.6877V7.62513Z" fill="white"/>
<path d="M174.936 34.3125L178.352 30.5L181.768 34.3125V53.3751L178.352 57.1876L174.936 53.3751V34.3125Z" fill="white"/>
<path d="M212.516 34.3125L215.932 30.5L219.348 34.3125V53.3751L215.932 57.1876L212.516 53.3751V34.3125Z" fill="white"/>
<path d="M137.607 34.3125L141.024 30.5L144.44 34.3125V53.3751L141.024 57.1876L137.607 53.3751V34.3125Z" fill="white"/>
<path d="M100.279 34.3125L103.696 30.5L107.112 34.3125V53.3751L103.696 57.1876L100.279 53.3751V34.3125Z" fill="white"/>
<path d="M62.9512 34.3125L66.3675 30.5L69.7838 34.3125V53.3751L66.3675 57.1876L62.9512 53.3751V34.3125Z" fill="white"/>
<path d="M25.623 34.3125L29.0394 30.5L32.4557 34.3125V53.3751L29.0394 57.1876L25.623 53.3751V34.3125Z" fill="white"/>
<path d="M195.434 0L192.018 3.81251L195.434 7.62502H210.807L214.224 3.81251L210.807 0H195.434Z" fill="white"/>
<path d="M83.1976 0L79.7812 3.81251L83.1976 7.62502H98.5711L101.987 3.81251L98.5711 0H83.1976Z" fill="white"/>
<path d="M45.8695 0L42.4531 3.81251L45.8695 7.62502H61.243L64.6593 3.81251L61.243 0H45.8695Z" fill="white"/>
<path d="M8.54133 0L5.125 3.81251L8.54133 7.62502H23.9148L27.3312 3.81251L23.9148 0H8.54133Z" fill="white"/>
<path d="M195.434 53.375L192.018 57.1875L195.434 61H210.807L214.224 57.1875L210.807 53.375H195.434Z" fill="white"/>
<path d="M83.1976 53.375L79.7812 57.1875L83.1976 61H98.5711L101.987 57.1875L98.5711 53.375H83.1976Z" fill="white"/>
<path d="M45.8695 53.375L42.4531 57.1875L45.8695 61H61.243L64.6593 57.1875L61.243 53.375H45.8695Z" fill="white"/>
<path d="M8.54133 53.375L5.125 57.1875L8.54133 61H23.9148L27.3312 57.1875L23.9148 53.375H8.54133Z" fill="white"/>
<path d="M232.18 49.1289L230.82 50.5469V55H228.652V37H230.82V47.8867L231.98 46.4922L235.93 42.3203H238.566L233.633 47.6172L239.141 55H236.598L232.18 49.1289ZM242.844 42.3203L242.902 43.7266C243.832 42.6328 245.086 42.0859 246.664 42.0859C248.438 42.0859 249.645 42.7656 250.285 44.125C250.707 43.5156 251.254 43.0234 251.926 42.6484C252.605 42.2734 253.406 42.0859 254.328 42.0859C257.109 42.0859 258.523 43.5586 258.57 46.5039V55H256.402V46.6328C256.402 45.7266 256.195 45.0508 255.781 44.6055C255.367 44.1523 254.672 43.9258 253.695 43.9258C252.891 43.9258 252.223 44.168 251.691 44.6523C251.16 45.1289 250.852 45.7734 250.766 46.5859V55H248.586V46.6914C248.586 44.8477 247.684 43.9258 245.879 43.9258C244.457 43.9258 243.484 44.5312 242.961 45.7422V55H240.793V42.3203H242.844Z" fill="white"/>
</svg>
