<svg width="589" height="236" viewBox="0 0 589 236" fill="none" xmlns="http://www.w3.org/2000/svg">
<path d="M156.445 27.4286L170.668 13.037L184.89 27.4286V99.3862L170.668 113.778L156.445 99.3862V27.4286Z" fill="#7AE87F"/>
<path d="M0 27.4286L14.2222 13.037L28.4444 27.4286V99.3862L14.2222 113.778L0 99.3862V27.4286Z" fill="black"/>
<path d="M312.889 27.4286L327.111 13.037L341.333 27.4286V99.3862L327.111 113.778L312.889 99.3862V27.4286Z" fill="#7AE87F"/>
<path d="M156.445 127.831L170.668 113.778L184.89 127.831V198.095L170.668 212.148L156.445 198.095V127.831Z" fill="#7AE87F"/>
<path d="M0 127.831L14.2222 113.778L28.4444 127.831V198.095L14.2222 212.148L0 198.095V127.831Z" fill="black"/>
<path d="M312.889 127.831L327.111 113.778L341.333 127.831V198.095L327.111 212.148L312.889 198.095V127.831Z" fill="#7AE87F"/>
<path d="M264.297 27.4286L277.927 13.037L291.556 27.4286V99.3862L277.927 113.778L264.297 99.3862V27.4286Z" fill="black"/>
<path d="M106.666 27.4286L120.888 13.037L135.11 27.4286V99.3862L120.888 113.778L106.666 99.3862V27.4286Z" fill="black"/>
<path d="M420.74 27.4286L434.37 13.037L447.999 27.4286V99.3862L434.37 113.778L420.74 99.3862V27.4286Z" fill="#7AE87F"/>
<path d="M264.297 127.831L277.927 113.778L291.556 127.831V198.095L277.927 212.148L264.297 198.095V127.831Z" fill="#7AE87F"/>
<path d="M106.666 127.831L120.888 113.778L135.11 127.831V198.095L120.888 212.148L106.666 198.095V127.831Z" fill="black"/>
<path d="M420.74 127.831L434.37 113.778L447.999 127.831V198.095L434.37 212.148L420.74 198.095V127.831Z" fill="#7AE87F"/>
<path d="M193.185 0L178.963 14.2222L193.185 28.4444H257.185L271.407 14.2222L257.185 0H193.185Z" fill="#7AE87F"/>
<path d="M193.185 100L178.963 114.222L193.185 128.444H257.185L271.407 114.222L257.185 100H193.185Z" fill="#7AE87F"/>
<path d="M36.7398 0L22.5176 14.2222L36.7398 28.4444H100.74L114.962 14.2222L100.74 0H36.7398Z" fill="black"/>
<path d="M349.448 0L335.408 14.2222L349.448 28.4444H412.628L426.667 14.2222L412.628 0H349.448Z" fill="#7AE87F"/>
<path d="M193.185 199.111L178.963 212.741L193.185 226.37H257.185L271.407 212.741L257.185 199.111H193.185Z" fill="#7AE87F"/>
<path d="M36.7398 199.111L22.5176 212.741L36.7398 226.37H100.74L114.962 212.741L100.74 199.111H36.7398Z" fill="black"/>
<path d="M349.448 199.111L335.408 212.741L349.448 226.37H412.628L426.667 212.741L412.628 199.111H349.448Z" fill="#7AE87F"/>
<path d="M503.633 216.215L501.367 218.578V226H497.754V196H501.367V214.145L503.301 211.82L509.883 204.867H514.277L506.055 213.695L515.234 226H510.996L503.633 216.215ZM521.406 204.867L521.504 207.211C523.053 205.388 525.143 204.477 527.773 204.477C530.729 204.477 532.741 205.609 533.809 207.875C534.512 206.859 535.423 206.039 536.543 205.414C537.676 204.789 539.01 204.477 540.547 204.477C545.182 204.477 547.539 206.931 547.617 211.84V226H544.004V212.055C544.004 210.544 543.659 209.418 542.969 208.676C542.279 207.921 541.12 207.543 539.492 207.543C538.151 207.543 537.038 207.947 536.152 208.754C535.267 209.548 534.753 210.622 534.609 211.977V226H530.977V212.152C530.977 209.079 529.473 207.543 526.465 207.543C524.095 207.543 522.474 208.552 521.602 210.57V226H517.988V204.867H521.406ZM553.809 228.441H550.703L562.578 197.562H565.664L553.809 228.441ZM573.184 207.426C574.785 205.46 576.868 204.477 579.434 204.477C583.9 204.477 586.152 206.996 586.191 212.035V226H582.578V212.016C582.565 210.492 582.214 209.366 581.523 208.637C580.846 207.908 579.785 207.543 578.34 207.543C577.168 207.543 576.139 207.855 575.254 208.48C574.368 209.105 573.678 209.926 573.184 210.941V226H569.57V196H573.184V207.426Z" fill="white"/>
</svg>
