<svg width="161" height="71" viewBox="0 0 161 71" fill="none" xmlns="http://www.w3.org/2000/svg">
<path d="M13.5684 8.83786L17.5281 4.41895L21.4878 8.83786V30.9324L17.5281 35.3513L13.5684 30.9324V8.83786Z" fill="white"/>
<path d="M13.5684 39.7702L17.5281 35.3513L21.4878 39.7702V61.8648L17.5281 66.2837L13.5684 61.8648V39.7702Z" fill="white"/>
<path d="M109.39 8.83786L113.349 4.41895L117.309 8.83786V30.9324L113.349 35.3513L109.39 30.9324V8.83786Z" fill="white"/>
<path d="M152.946 8.83786L156.906 4.41895L160.866 8.83786V30.9324L156.906 35.3513L152.946 30.9324V8.83786Z" fill="white"/>
<path d="M43.2656 8.83786L47.2253 4.41895L51.1851 8.83786V30.9324L47.2253 35.3513L43.2656 30.9324V8.83786Z" fill="white"/>
<path d="M0 8.83786L3.95972 4.41895L7.91944 8.83786V30.9324L3.95972 35.3513L0 30.9324V8.83786Z" fill="white"/>
<path d="M109.39 39.7702L113.349 35.3513L117.309 39.7702V61.8648L113.349 66.2837L109.39 61.8648V39.7702Z" fill="white"/>
<path d="M152.946 39.7702L156.906 35.3513L160.866 39.7702V61.8648L156.906 66.2837L152.946 61.8648V39.7702Z" fill="white"/>
<path d="M43.2656 39.7702L47.2253 35.3513L51.1851 39.7702V61.8648L47.2253 66.2837L43.2656 61.8648V39.7702Z" fill="white"/>
<path d="M0 39.7702L3.95972 35.3513L7.91944 39.7702V61.8648L3.95972 66.2837L0 61.8648V39.7702Z" fill="white"/>
<path d="M23.4675 0L19.5078 4.41891L23.4675 8.83783H41.2863L45.246 4.41891L41.2863 0H23.4675Z" fill="white"/>
<path d="M23.4675 61.8647L19.5078 66.2837L23.4675 70.7026H41.2863L45.246 66.2837L41.2863 61.8647H23.4675Z" fill="white"/>
<ellipse cx="65.8141" cy="21.6331" rx="4.89804" ry="5.30621" fill="white"/>
<circle cx="65.8141" cy="50.6131" r="4.89804" fill="white"/>
</svg>
