<svg width="147" height="330" viewBox="0 0 147 330" fill="none" xmlns="http://www.w3.org/2000/svg">
<rect width="147" height="330" rx="73.5" fill="#CBCBCB"/>
<path fill-rule="evenodd" clip-rule="evenodd" d="M63.4091 10.0439L61.6016 14.0876L61.6063 27.2494L61.611 40.4113L60.2728 41.442L58.9345 42.4729L57.7685 41.7498C56.1933 40.7734 54.7698 40.7533 53.5382 41.69C51.4746 43.2595 50.6915 45.6323 50.859 49.807L50.967 52.5053L49.6213 53.9495C47.7726 55.9329 45.1458 59.9181 43.6363 63.0292C40.0541 70.4113 39.7283 74.8195 42.2243 82.1209C42.5515 83.0776 42.8191 83.9092 42.8191 83.9687C42.8191 84.0285 42.0383 84.0067 41.0841 83.9205C39.4544 83.7731 39.3062 83.7996 38.6407 84.3581C37.3051 85.479 34.6141 93.8025 32.9872 101.846C32.1317 106.076 32.0908 106.199 31.648 105.859C30.8026 105.209 27.903 103.961 26.0168 103.436C24.3598 102.975 23.4428 102.904 18.0373 102.815C11.0185 102.7 9.59409 102.888 6.72292 104.302C4.81601 105.242 2.28075 107.548 2.02142 108.578C1.57582 110.349 8.16308 113.489 14.1615 114.364C19.8549 115.195 25.042 114.116 28.5152 111.379C29.6723 110.467 29.754 110.44 30.9802 110.593L32.2487 110.751V112.843V114.934L31.2503 114.935C29.8748 114.936 28.7994 115.644 28.2324 116.922C27.8767 117.725 27.5993 118.01 27.0151 118.174C26.5991 118.291 23.4047 119.257 19.9165 120.321C12.3788 122.62 12.2444 122.703 12.0904 125.117C12.0159 126.283 12.0873 126.79 12.3908 127.252C12.8444 127.942 14.4419 128.742 15.3822 128.75C15.7306 128.753 19.1923 127.806 23.0747 126.647C26.9571 125.487 30.3335 124.539 30.5778 124.539C30.8221 124.539 31.2494 124.723 31.527 124.948L32.0321 125.358L32.2536 144.567C32.6043 174.982 33.1838 190.663 34.2754 199.266C34.7224 202.789 34.7116 201.783 34.3583 207.113C33.7337 216.538 34.6066 228.004 36.7394 238.386C39.0013 249.396 43.1148 260.579 48.3251 269.883C49.0434 271.165 49.6312 272.391 49.6312 272.606C49.6312 273.204 49.0998 273.521 47.7179 273.746C45.632 274.087 45.1195 274.252 43.4348 275.122C39.072 277.376 36.8806 281.369 38.3976 284.3C39.2134 285.876 40.479 286.483 43.1963 286.602C45.7208 286.712 47.5965 286.267 48.4569 285.354C48.91 284.873 49.0413 284.44 49.1172 283.18C49.1841 282.065 49.3403 281.466 49.6528 281.126C49.8952 280.862 50.1583 280.324 50.2374 279.93C50.3549 279.344 50.244 279.058 49.6286 278.359C48.645 277.242 48.7846 276.537 50.0918 276.015C50.606 275.81 51.1775 275.7 51.3617 275.77C51.546 275.841 52.6064 277.317 53.7177 279.052L55.7385 282.205V294.608C55.7385 306.932 55.742 307.02 56.267 308.305L56.7956 309.599L57.8885 309.599L58.9815 309.599L63.0563 316.853L67.1311 324.106L73.4973 324.115L79.8635 324.123L83.9503 316.866L88.0371 309.609L89.1221 309.604L90.2073 309.599L90.8251 308.178L91.4431 306.757V294.371V281.985L92.8999 279.714L94.357 277.443L94.6417 279.128C95.1651 282.226 96.4359 284.401 98.5035 285.737L99.6617 286.485L99.611 288.965C99.5765 290.637 99.6585 291.621 99.8621 291.984C100.617 293.333 103.012 293.869 104.512 293.026C105.532 292.453 106.712 291.022 106.712 290.358C106.712 290.051 106.5 289.669 106.242 289.508C105.869 289.276 105.772 288.962 105.772 287.984V286.752L106.932 286.341C109.212 285.534 110.432 283.273 111.986 276.973C112.957 273.04 114.069 266.562 114.589 261.812C115.103 257.119 115.316 239.742 114.96 231.593C114.527 221.706 114.026 216.092 112.557 204.658C112.372 203.219 112.374 202.218 112.562 201.027C113.259 196.608 113.796 188.193 114.229 174.903C114.541 165.345 114.928 142.141 114.931 132.837L114.933 125.557L115.477 125.048C115.776 124.768 116.238 124.539 116.503 124.539C116.768 124.539 120.179 125.498 124.083 126.67C132.121 129.085 132.59 129.135 134.123 127.734C134.769 127.144 134.972 126.752 135.067 125.913C135.237 124.405 134.491 122.762 133.441 122.333C133.016 122.159 129.655 121.095 125.973 119.969L119.279 117.921L118.809 116.955C118.192 115.687 117.042 114.934 115.72 114.934H114.698V112.957C114.698 111.869 114.783 110.927 114.888 110.863C114.992 110.798 115.604 110.676 116.247 110.591C117.355 110.444 117.471 110.483 118.465 111.317C120.762 113.246 125.29 114.69 129.062 114.697C131.339 114.701 135.791 113.948 138.137 113.162C141.864 111.915 145 109.89 145 108.732C145 107.759 142.347 105.262 140.266 104.276C137.343 102.892 135.872 102.701 129.027 102.815C122.132 102.93 120.803 103.17 117.166 104.957C116.004 105.529 115.016 105.959 114.971 105.914C114.925 105.869 114.478 103.855 113.976 101.439C112.964 96.5702 111.876 92.5994 110.493 88.7339C108.773 83.9252 108.526 83.6722 105.803 83.9245L104.176 84.0753L104.972 81.7035C106.417 77.4007 106.784 73.93 106.144 70.6221C105.195 65.7224 101.562 58.6943 97.6104 54.1161L96.1932 52.4742L96.0957 48.8587C96.0109 45.7159 95.9294 45.1027 95.4728 44.1656C94.5489 42.2696 92.8407 40.9097 91.383 40.9097C90.8629 40.9097 89.8117 41.3684 88.6964 42.082C88.2248 42.3834 88.0702 42.3354 86.876 41.5148L85.5706 40.6183V27.4628V14.3071L83.7149 10.2152L81.8592 6.12298L73.538 6.06161L65.2167 6L63.4091 10.0439Z" fill="black"/>
</svg>
