<svg width="495" height="675" viewBox="0 0 495 675" fill="none" xmlns="http://www.w3.org/2000/svg">
<path fill-rule="evenodd" clip-rule="evenodd" d="M495 426.669V248.332V247.76H494.999C494.691 111.332 384 0.831543 247.5 0.831543C111 0.831543 0.309053 111.332 0.000646031 247.76H0V248.332V426.669V427.24H0.000645996C0.309044 563.668 111 674.169 247.5 674.169C384 674.169 494.691 563.668 494.999 427.24H495V426.669Z" fill="url(#paint0_angular_221_239)"/>
<path fill-rule="evenodd" clip-rule="evenodd" d="M489.287 426.097V248.331V245.473H489.27C487.739 113.257 380.083 6.54736 247.503 6.54736C114.923 6.54736 7.26671 113.257 5.73529 245.473H5.71875V248.331V426.097H5.71941C5.71897 426.288 5.71875 426.478 5.71875 426.669C5.71875 560.202 113.969 668.453 247.503 668.453C381.036 668.453 489.287 560.202 489.287 426.669C489.287 426.478 489.287 426.288 489.286 426.097H489.287Z" fill="black"/>
<path fill-rule="evenodd" clip-rule="evenodd" d="M438.985 427.812V248.331V245.474H438.964C437.436 141.038 352.301 56.8477 247.501 56.8477C142.702 56.8477 57.5664 141.038 56.0385 245.474H56.0176V248.331V427.812V428.383H56.0184C56.3267 533.874 141.938 619.296 247.501 619.296C353.064 619.296 438.676 533.874 438.984 428.383H438.985V427.812Z" fill="url(#paint1_angular_221_239)"/>
<path fill-rule="evenodd" clip-rule="evenodd" d="M433.268 247.188C433.268 247.379 433.268 247.569 433.267 247.76H433.268V428.383H433.267C433.268 428.574 433.268 428.764 433.268 428.955C433.268 531.552 350.097 614.723 247.5 614.723C144.904 614.723 61.7324 531.552 61.7324 428.955C61.7324 428.764 61.7327 428.574 61.7333 428.383H61.7324V247.76H61.7333C61.7327 247.569 61.7324 247.379 61.7324 247.188C61.7324 144.592 144.904 61.4204 247.5 61.4204C350.097 61.4204 433.268 144.592 433.268 247.188Z" fill="black"/>
<path fill-rule="evenodd" clip-rule="evenodd" d="M382.967 428.955V247.188V246.617H382.965C382.657 172.063 322.125 111.721 247.499 111.721C172.873 111.721 112.34 172.063 112.032 246.617H112.031V247.188V428.955V429.527H112.032C112.34 504.081 172.873 564.423 247.499 564.423C322.125 564.423 382.657 504.081 382.965 429.527H382.967V428.955Z" fill="url(#paint2_angular_221_239)"/>
<path fill-rule="evenodd" clip-rule="evenodd" d="M377.253 247.188C377.253 247.379 377.253 247.569 377.252 247.76H377.253V428.955V429.527H377.252C376.944 500.924 318.971 558.707 247.502 558.707C176.032 558.707 118.059 500.924 117.751 429.527H117.75V428.955V247.76H117.751C117.75 247.569 117.75 247.379 117.75 247.188C117.75 175.528 175.842 117.437 247.502 117.437C319.162 117.437 377.253 175.528 377.253 247.188Z" fill="black"/>
<defs>
<radialGradient id="paint0_angular_221_239" cx="0" cy="0" r="1" gradientUnits="userSpaceOnUse" gradientTransform="translate(247.5 337.5) rotate(90) scale(336.669 247.5)">
<stop offset="0.0260417" stop-color="#CDD8F4"/>
<stop offset="0.208333" stop-color="#B5D1FD"/>
<stop offset="0.395833" stop-color="#9A9BAA"/>
<stop offset="0.5625" stop-color="#9BABC3"/>
<stop offset="0.755208" stop-color="#ADBFEB"/>
<stop offset="0.953125" stop-color="#89939F"/>
</radialGradient>
<radialGradient id="paint1_angular_221_239" cx="0" cy="0" r="1" gradientUnits="userSpaceOnUse" gradientTransform="translate(247.501 338.072) rotate(90) scale(281.224 191.484)">
<stop offset="0.0364583" stop-color="#CDD8F4"/>
<stop offset="0.208333" stop-color="#B5D1FD"/>
<stop offset="0.390625" stop-color="#9A9BAA"/>
<stop offset="0.572917" stop-color="#9BABC3"/>
<stop offset="0.755208" stop-color="#ADBFEB"/>
<stop offset="0.953125" stop-color="#89939F"/>
</radialGradient>
<radialGradient id="paint2_angular_221_239" cx="0" cy="0" r="1" gradientUnits="userSpaceOnUse" gradientTransform="translate(247.499 338.072) rotate(90) scale(226.351 135.468)">
<stop offset="0.0416667" stop-color="#CDD8F4"/>
<stop offset="0.213542" stop-color="#B5D1FD"/>
<stop offset="0.390625" stop-color="#9A9BAA"/>
<stop offset="0.5625" stop-color="#9BABC3"/>
<stop offset="0.760417" stop-color="#ADBFEB"/>
<stop offset="0.947917" stop-color="#89939F"/>
</radialGradient>
</defs>
</svg>
