<svg width="180" height="64" viewBox="0 0 180 64" fill="none" xmlns="http://www.w3.org/2000/svg">
<path fill-rule="evenodd" clip-rule="evenodd" d="M9.72017 1.72754V3.45508L7.32075 3.4571C5.69068 3.45853 4.6629 3.51429 4.11548 3.63093C2.16253 4.04697 0.492652 5.76224 0.124148 7.73056C-0.0409083 8.61208 -0.0416188 55.8409 0.123438 56.7157C0.479618 58.6046 1.80647 60.135 3.63666 60.7682C4.28279 60.9918 4.72404 61 16.0001 61C27.2762 61 27.7175 60.9918 28.3636 60.7682C30.1938 60.135 31.5207 58.6046 31.8768 56.7157C32.0406 55.8479 32.0413 8.61565 31.8775 7.73056C31.6176 6.32422 30.5919 4.91586 29.2549 4.12906C28.3558 3.59995 27.3743 3.45949 24.561 3.4571L22.0431 3.45508V1.72754V0L15.8816 0L9.72017 0V1.72754ZM27.5767 7.38195C27.7854 7.50979 28.052 7.79108 28.1692 8.00696C28.3724 8.38107 28.3823 9.51695 28.3823 32.3082L28.3823 56.2169L28.138 56.5459C28.0036 56.7269 27.7465 56.9854 27.5665 57.1205C27.2414 57.3647 27.1667 57.3662 16.0001 57.3662C4.83353 57.3662 4.75888 57.3647 4.43374 57.1205C4.25376 56.9854 3.99663 56.7269 3.86227 56.5459L3.61794 56.2169L3.61794 32.3082C3.61794 9.51695 3.62789 8.38107 3.8311 8.00696C3.94829 7.79108 4.21489 7.50979 4.42355 7.38195C4.79265 7.15559 5.10309 7.14927 16.0001 7.14927C26.8972 7.14927 27.2076 7.15559 27.5767 7.38195ZM5.45453 32.2871L5.45453 36.2188H16.0001L26.5457 36.2187L26.5457 32.2871V28.3555H16.0001L5.45453 28.3555L5.45453 32.2871ZM5.45453 41.9375V45.8691H16.0001L26.5457 45.8691V41.9375V38.0059L16.0001 38.0059H5.45453L5.45453 41.9375ZM5.45453 51.5283L5.45453 55.4004H16.0001L26.5457 55.4004L26.5457 51.5283V47.6562L16.0001 47.6562H5.45453V51.5283Z" fill="white"/>
<path d="M76.3281 7.62501L79.7445 3.8125L83.1608 7.62501V26.6876L79.7445 30.5001L76.3281 26.6876V7.62501Z" fill="black"/>
<path d="M76.3281 34.3125L79.7445 30.5L83.1608 34.3125V53.3751L79.7445 57.1876L76.3281 53.3751V34.3125Z" fill="black"/>
<path d="M84.8695 53.375L81.4531 57.1875L84.8695 61H100.243L103.659 57.1875L100.243 53.375H84.8695Z" fill="black"/>
<path d="M104.951 7.62501L108.368 3.8125L111.784 7.62501V26.6876L108.368 30.5001L104.951 26.6876V7.62501Z" fill="white"/>
<path d="M104.951 34.3125L108.368 30.5L111.784 34.3125V53.3751L108.368 57.1876L104.951 53.3751V34.3125Z" fill="white"/>
<path d="M87.8695 0L84.4531 3.81251L87.8695 7.62502H103.243L106.659 3.81251L103.243 0H87.8695Z" fill="white"/>
<path d="M116.656 7.62501L120.073 3.8125L123.489 7.62501V26.6876L120.073 30.5001L116.656 26.6876V7.62501Z" fill="white"/>
<path d="M116.656 34.3125L120.073 30.5L123.489 34.3125V53.3751L120.073 57.1876L116.656 53.3751V34.3125Z" fill="white"/>
<path d="M142.281 7.62501L145.698 3.8125L149.114 7.62501V26.6876L145.698 30.5001L142.281 26.6876V7.62501Z" fill="white"/>
<path d="M142.281 34.3125L145.698 30.5L149.114 34.3125V53.3751L145.698 57.1876L142.281 53.3751V34.3125Z" fill="white"/>
<path d="M125.198 0L121.781 3.81251L125.198 7.62502H140.571L143.987 3.81251L140.571 0H125.198Z" fill="white"/>
<path d="M125.198 53.375L121.781 57.1875L125.198 61H140.571L143.987 57.1875L140.571 53.375H125.198Z" fill="white"/>
<path d="M42 7.62501L45.4163 3.8125L48.8327 7.62501V26.6876L45.4163 30.5001L42 26.6876V7.62501Z" fill="white"/>
<path d="M42 34.3125L45.4163 30.5L48.8327 34.3125V53.3751L45.4163 57.1876L42 53.3751V34.3125Z" fill="white"/>
<path d="M67.623 7.62501L71.0394 3.8125L74.4557 7.62501V26.6876L71.0394 30.5001L67.623 26.6876V7.62501Z" fill="white"/>
<path d="M67.623 34.3125L71.0394 30.5L74.4557 34.3125V53.3751L71.0394 57.1876L67.623 53.3751V34.3125Z" fill="white"/>
<path d="M50.5413 0L47.125 3.81251L50.5413 7.62502H65.9148L69.3312 3.81251L65.9148 0H50.5413Z" fill="white"/>
<path d="M50.5413 53.375L47.125 57.1875L50.5413 61H65.9148L69.3312 57.1875L65.9148 53.375H50.5413Z" fill="white"/>
<path d="M158.651 39.7734C158.651 38.4941 159.057 37.4395 159.867 36.6094C160.688 35.7793 161.737 35.3643 163.017 35.3643C164.315 35.3643 165.365 35.7842 166.166 36.624C166.977 37.4541 167.382 38.5332 167.382 39.8613V40.9014C167.382 42.1904 166.972 43.2451 166.151 44.0654C165.341 44.876 164.306 45.2812 163.046 45.2812C161.776 45.2812 160.727 44.876 159.896 44.0654C159.066 43.2451 158.651 42.1562 158.651 40.7988V39.7734ZM160.673 40.9014C160.673 41.6631 160.888 42.293 161.317 42.791C161.747 43.2793 162.323 43.5234 163.046 43.5234C163.739 43.5234 164.296 43.2842 164.716 42.8057C165.146 42.3271 165.36 41.6729 165.36 40.8428V39.7734C165.36 39.0117 165.15 38.3818 164.73 37.8838C164.311 37.3857 163.739 37.1367 163.017 37.1367C162.294 37.1367 161.723 37.3857 161.303 37.8838C160.883 38.3818 160.673 39.0312 160.673 39.832V40.9014ZM169.037 51.7705C169.037 50.4912 169.442 49.4414 170.253 48.6211C171.073 47.791 172.123 47.376 173.402 47.376C174.682 47.376 175.731 47.7861 176.552 48.6064C177.372 49.4268 177.782 50.5156 177.782 51.873V52.9131C177.782 54.1924 177.372 55.2471 176.552 56.0771C175.741 56.8975 174.701 57.3076 173.432 57.3076C172.162 57.3076 171.112 56.9023 170.282 56.0918C169.452 55.2715 169.037 54.1826 169.037 52.8252V51.7705ZM171.059 52.9131C171.059 53.6846 171.273 54.3193 171.703 54.8174C172.133 55.3057 172.709 55.5498 173.432 55.5498C174.135 55.5498 174.696 55.3105 175.116 54.832C175.536 54.3438 175.746 53.6846 175.746 52.8545V51.7705C175.746 50.999 175.531 50.3691 175.102 49.8809C174.682 49.3926 174.115 49.1484 173.402 49.1484C172.709 49.1484 172.143 49.3926 171.703 49.8809C171.273 50.3594 171.059 51.0088 171.059 51.8291V52.9131ZM163.661 55.3887L162.123 54.4219L172.538 37.752L174.076 38.7188L163.661 55.3887Z" fill="white"/>
</svg>
